<svg width="32" height="32" viewBox="0 0 32 32" fill="none" xmlns="http://www.w3.org/2000/svg">
<ellipse cx="16.1853" cy="16.4943" rx="15.8147" ry="15.1351" fill="#3BAFA9"/>
<path d="M23.6317 15.6315H16.8439C15.7364 15.6315 14.8386 16.4819 14.8386 17.5317C14.8386 18.5816 15.7364 19.4313 16.8439 19.4313H21.4552V22.2936C20.0248 23.4384 18.2358 24.0612 16.3409 24.0612C11.9386 24.0612 8.38242 20.6711 8.38242 16.4942C8.38242 12.3174 11.7912 8.92725 15.981 8.92725C18.0261 8.92725 19.9442 9.72477 21.3834 11.1733C22.1425 11.9375 23.4118 11.9738 24.2181 11.2545C25.0245 10.5353 25.0629 9.33326 24.3038 8.56909C22.136 6.38679 19.1271 5.12744 15.981 5.12744C9.42241 5.12744 4.20068 10.2896 4.20068 16.4942C4.20068 19.4944 5.52952 22.4046 7.87585 24.5296C10.1111 26.6539 13.1738 27.861 16.3409 27.861C19.6227 27.861 22.7725 26.6263 25.0665 24.4448C25.4323 24.0902 25.637 23.6139 25.637 23.1173V17.531C25.637 16.4819 24.7392 15.6307 23.6317 15.6307V15.6315Z" fill="white"/>
</svg>
